<?xml version="1.0" standalone="no"?>
<svg viewBox="0 0 200 200" xmlns="http://www.w3.org/2000/svg">
  <mask id="mask0" mask-type="alpha">
    <path d="M46.8,-55.5C60.6,-44.3,71.5,-29.4,71.6,-14.7C71.8,0,61,14.5,50.9,26.9C40.8,39.3,31.3,49.5,19.2,54.8C7.1,60.1,-7.6,60.6,-18.5,54.9C-29.4,49.2,-36.5,37.2,-43.1,25.2C-49.7,13.2,-55.6,1.2,-55.8,-11.9C-55.9,-24.9,-50.1,-38.9,-39.9,-50.7C-29.6,-62.5,-14.8,-72.2,0.9,-73.2C16.5,-74.3,33.1,-66.7,46.8,-55.5Z" transform="translate(100 100)" />
  </mask>
  <g mask="url(#mask0)"> 
    <path d="M46.8,-55.5C60.6,-44.3,71.5,-29.4,71.6,-14.7C71.8,0,61,14.5,50.9,26.9C40.8,39.3,31.3,49.5,19.2,54.8C7.1,60.1,-7.6,60.6,-18.5,54.9C-29.4,49.2,-36.5,37.2,-43.1,25.2C-49.7,13.2,-55.6,1.2,-55.8,-11.9C-55.9,-24.9,-50.1,-38.9,-39.9,-50.7C-29.6,-62.5,-14.8,-72.2,0.9,-73.2C16.5,-74.3,33.1,-66.7,46.8,-55.5Z" transform="translate(100 100)" />
  <image xlink:href="">
  </g>
</svg>